# xmcd
#
# Track frame offsets:
#	150
#	16880
#	33912
#	50752
#	71055
#	94180
#	112480
#	127287
#	140942
#	161262
#
# Disc length: 2512
#
# Revision: 2
# Processed by: cddbd v1.5.1PL0 Copyright (c) Steve Scherf et al.
# Submitted via: EasyCDDAExtractor 5.0.6
# Normalized: r1:TRMNUM
#
DISCID=9909ce0a
DTITLE=KangTa 1st Concert - PINETREE 20020824LIVE
DYEAR=2003
DGENRE=ballad
TTITLE0=Opening
TTITLE1=스물셋(My life)
TTITLE2=The Best
TTITLE3=Blue Moon
TTITLE4=이별후에는(One Snowing)
TTITLE5=Doobidub
TTITLE6=오!그대를(Falling in Love)
TTITLE7=Happy Happy
TTITLE8=고백(Confession)
TTITLE9=그해여름(Last Summer Night)
EXTD=
EXTT0=
EXTT1=
EXTT2=
EXTT3=
EXTT4=
EXTT5=
EXTT6=
EXTT7=
EXTT8=
EXTT9=
PLAYORDER=
